<svg width="320" height="58" viewBox="0 0 320 58" fill="none" xmlns="http://www.w3.org/2000/svg">
<g filter="url(#filter0_d_61_2)">
<rect x="4" width="312" height="50" rx="10" fill="#FEE500"/>
<path d="M106.819 20.038H108.115C108.115 24.214 106.707 28.054 101.523 30.63L100.803 29.606C105.379 27.35 106.819 24.118 106.819 20.182V20.038ZM101.587 20.038H107.603V21.11H101.587V20.038ZM106.611 23.622V24.646L101.075 25.19L100.867 24.006L106.611 23.622ZM110.451 18.518H111.795V32.998H110.451V18.518ZM111.427 24.39H114.099V25.494H111.427V24.39ZM121.538 20.038H122.834C122.834 24.214 121.426 28.054 116.242 30.63L115.522 29.606C120.098 27.35 121.538 24.118 121.538 20.182V20.038ZM116.306 20.038H122.322V21.11H116.306V20.038ZM121.33 23.622V24.646L115.794 25.19L115.586 24.006L121.33 23.622ZM125.17 18.518H126.514V32.998H125.17V18.518ZM126.146 24.39H128.818V25.494H126.146V24.39ZM135.969 26.71H137.297V30.31H135.969V26.71ZM136.641 19.478C139.697 19.478 141.889 20.966 141.889 23.27C141.889 25.574 139.697 27.062 136.641 27.062C133.585 27.062 131.377 25.574 131.377 23.27C131.377 20.966 133.585 19.478 136.641 19.478ZM136.641 20.534C134.337 20.534 132.657 21.622 132.657 23.27C132.657 24.918 134.337 26.006 136.641 26.006C138.929 26.006 140.609 24.918 140.609 23.27C140.609 21.622 138.929 20.534 136.641 20.534ZM130.113 30.054H143.217V31.158H130.113V30.054ZM144.831 30.118H157.935V31.222H144.831V30.118ZM150.687 27.014H152.015V30.582H150.687V27.014ZM146.415 19.606H156.319V23.99H147.775V26.886H146.463V22.918H155.007V20.678H146.415V19.606ZM146.463 26.326H156.655V27.414H146.463V26.326ZM167.858 19.782H168.946V22.374C168.946 25.702 167.154 28.79 164.786 29.99L163.97 28.902C166.114 27.878 167.858 25.11 167.858 22.374V19.782ZM168.082 19.782H169.17V22.374C169.17 25.014 170.898 27.67 173.042 28.662L172.242 29.718C169.89 28.566 168.082 25.59 168.082 22.374V19.782ZM174.546 18.518H175.874V33.014H174.546V18.518ZM182.321 20.022H183.409V21.19C183.409 23.846 181.809 26.054 179.393 26.918L178.689 25.878C180.881 25.11 182.321 23.254 182.321 21.19V20.022ZM182.561 20.022H183.649V21.174C183.649 23.094 185.041 24.87 187.169 25.59L186.481 26.63C184.097 25.798 182.561 23.67 182.561 21.174V20.022ZM179.105 19.542H186.833V20.63H179.105V19.542ZM188.657 18.534H189.985V27.238H188.657V18.534ZM189.617 22.342H192.129V23.446H189.617V22.342ZM180.593 28.006H189.985V32.998H188.657V29.11H180.593V28.006ZM203.28 18.534H204.608V32.998H203.28V18.534ZM204.288 24.47H206.976V25.59H204.288V24.47ZM193.408 20.838H201.936V21.926H193.408V20.838ZM197.728 23.126C199.776 23.126 201.248 24.502 201.248 26.454C201.248 28.406 199.776 29.782 197.728 29.782C195.696 29.782 194.208 28.406 194.208 26.454C194.208 24.502 195.696 23.126 197.728 23.126ZM197.728 24.23C196.416 24.23 195.472 25.142 195.472 26.454C195.472 27.75 196.416 28.678 197.728 28.678C199.04 28.678 199.984 27.75 199.984 26.454C199.984 25.142 199.04 24.23 197.728 24.23ZM197.04 18.71H198.368V21.334H197.04V18.71ZM218.734 18.534H220.062V32.998H218.734V18.534ZM214.494 20.086H215.806C215.806 24.278 213.918 27.942 209.086 30.31L208.382 29.238C212.558 27.222 214.494 24.15 214.494 20.31V20.086ZM209.038 20.086H215.07V21.174H209.038V20.086Z" fill="black"/>
</g>
<defs>
<filter id="filter0_d_61_2" x="0" y="0" width="320" height="58" filterUnits="userSpaceOnUse" color-interpolation-filters="sRGB">
<feFlood flood-opacity="0" result="BackgroundImageFix"/>
<feColorMatrix in="SourceAlpha" type="matrix" values="0 0 0 0 0 0 0 0 0 0 0 0 0 0 0 0 0 0 127 0" result="hardAlpha"/>
<feOffset dy="4"/>
<feGaussianBlur stdDeviation="2"/>
<feComposite in2="hardAlpha" operator="out"/>
<feColorMatrix type="matrix" values="0 0 0 0 0 0 0 0 0 0 0 0 0 0 0 0 0 0 0.25 0"/>
<feBlend mode="normal" in2="BackgroundImageFix" result="effect1_dropShadow_61_2"/>
<feBlend mode="normal" in="SourceGraphic" in2="effect1_dropShadow_61_2" result="shape"/>
</filter>
</defs>
</svg>
