<svg width="312" height="50" viewBox="0 0 312 50" fill="none" xmlns="http://www.w3.org/2000/svg">
<rect x="0.5" y="0.5" width="311" height="49" rx="9.5" fill="#F5F5F5" stroke="#D9D9D9"/>
<path d="M134.722 28.368H147.826V29.472H134.722V28.368ZM140.578 25.264H141.906V28.832H140.578V25.264ZM136.306 17.856H146.21V22.24H137.666V25.136H136.354V21.168H144.898V18.928H136.306V17.856ZM136.354 24.576H146.546V25.664H136.354V24.576ZM150.849 18.32H160.161V19.392H150.849V18.32ZM149.441 28.032H162.513V29.136H149.441V28.032ZM159.457 18.32H160.753V19.76C160.753 21.616 160.753 23.68 160.209 26.8L158.881 26.672C159.457 23.712 159.457 21.552 159.457 19.76V18.32ZM174.671 16.8H176.015V27.36H174.671V16.8ZM166.719 29.84H176.447V30.928H166.719V29.84ZM166.719 26.272H168.031V30.208H166.719V26.272ZM168.255 17.792C170.415 17.792 172.015 19.264 172.015 21.36C172.015 23.44 170.415 24.928 168.255 24.928C166.095 24.928 164.479 23.44 164.479 21.36C164.479 19.264 166.095 17.792 168.255 17.792ZM168.255 18.944C166.847 18.944 165.775 19.936 165.775 21.36C165.775 22.768 166.847 23.76 168.255 23.76C169.663 23.76 170.735 22.768 170.735 21.36C170.735 19.936 169.663 18.944 168.255 18.944Z" fill="black"/>
</svg>
