<svg width="320" height="58" viewBox="0 0 320 58" fill="none" xmlns="http://www.w3.org/2000/svg">
<g filter="url(#filter0_d_45_53)">
<rect x="4" width="312" height="50" rx="10" fill="#6B90F0"/>
<path d="M142.907 18.358H144.923V33.174H142.907V18.358ZM140.923 24.054H143.387V25.766H140.923V24.054ZM139.595 18.614H141.562V32.47H139.595V18.614ZM132.618 28.086H133.659C135.483 28.086 137.003 28.022 138.763 27.702L138.923 29.43C137.131 29.782 135.562 29.83 133.659 29.83H132.618V28.086ZM132.618 20.07H138.091V21.782H134.731V28.918H132.618V20.07ZM153.545 21.382H157.577V23.094H153.545V21.382ZM153.545 25.974H157.577V27.686H153.545V25.974ZM150.985 19.382C153.193 19.382 154.809 21.43 154.809 24.662C154.809 27.926 153.193 29.974 150.985 29.974C148.761 29.974 147.161 27.926 147.161 24.662C147.161 21.43 148.761 19.382 150.985 19.382ZM150.985 21.318C149.913 21.318 149.177 22.486 149.177 24.662C149.177 26.87 149.913 28.054 150.985 28.054C152.073 28.054 152.793 26.87 152.793 24.662C152.793 22.486 152.073 21.318 150.985 21.318ZM157.241 18.342H159.353V33.206H157.241V18.342ZM171.144 18.358H173.256V33.174H171.144V18.358ZM172.776 24.134H175.4V25.91H172.776V24.134ZM161.576 20.55H170.2V22.246H161.576V20.55ZM165.912 23.078C168.072 23.078 169.672 24.55 169.672 26.614C169.672 28.678 168.072 30.15 165.912 30.15C163.752 30.15 162.152 28.678 162.152 26.614C162.152 24.55 163.752 23.078 165.912 23.078ZM165.912 24.806C164.904 24.806 164.184 25.478 164.184 26.614C164.184 27.75 164.904 28.422 165.912 28.422C166.92 28.422 167.64 27.75 167.64 26.614C167.64 25.478 166.92 24.806 165.912 24.806ZM164.84 18.598H166.968V21.19H164.84V18.598ZM186.567 18.358H188.711V33.174H186.567V18.358ZM182.199 19.894H184.311C184.311 24.422 182.775 28.134 177.511 30.678L176.407 28.982C180.663 26.934 182.199 24.246 182.199 20.278V19.894ZM177.191 19.894H183.207V21.574H177.191V19.894Z" fill="white"/>
</g>
<defs>
<filter id="filter0_d_45_53" x="0" y="0" width="320" height="58" filterUnits="userSpaceOnUse" color-interpolation-filters="sRGB">
<feFlood flood-opacity="0" result="BackgroundImageFix"/>
<feColorMatrix in="SourceAlpha" type="matrix" values="0 0 0 0 0 0 0 0 0 0 0 0 0 0 0 0 0 0 127 0" result="hardAlpha"/>
<feOffset dy="4"/>
<feGaussianBlur stdDeviation="2"/>
<feComposite in2="hardAlpha" operator="out"/>
<feColorMatrix type="matrix" values="0 0 0 0 0 0 0 0 0 0 0 0 0 0 0 0 0 0 0.25 0"/>
<feBlend mode="normal" in2="BackgroundImageFix" result="effect1_dropShadow_45_53"/>
<feBlend mode="normal" in="SourceGraphic" in2="effect1_dropShadow_45_53" result="shape"/>
</filter>
</defs>
</svg>
