<svg width="111" height="30" viewBox="0 0 111 30" fill="none" xmlns="http://www.w3.org/2000/svg">
<rect width="111" height="30" fill="white"/>
<path d="M25.2125 8.436H26.3325V21.092H25.2125V8.436ZM23.0705 13.504H25.5065V14.47H23.0705V13.504ZM22.3425 8.716H23.4345V20.448H22.3425V8.716ZM16.0425 17.004H16.8685C18.7165 17.004 19.9765 16.934 21.4465 16.626L21.5585 17.592C20.0465 17.914 18.7725 17.97 16.8685 17.97H16.0425V17.004ZM16.0425 9.976H20.7465V10.928H17.1905V17.438H16.0425V9.976ZM34.1714 11.25H37.9934V12.216H34.1714V11.25ZM34.1714 15.254H37.9934V16.22H34.1714V15.254ZM31.8474 9.402C33.6814 9.402 34.9974 11.124 34.9974 13.812C34.9974 16.514 33.6814 18.236 31.8474 18.236C29.9994 18.236 28.6974 16.514 28.6974 13.812C28.6974 11.124 29.9994 9.402 31.8474 9.402ZM31.8474 10.452C30.6294 10.452 29.7894 11.768 29.7894 13.812C29.7894 15.87 30.6294 17.214 31.8474 17.214C33.0654 17.214 33.9054 15.87 33.9054 13.812C33.9054 11.768 33.0654 10.452 31.8474 10.452ZM37.7414 8.422H38.8894V21.106H37.7414V8.422ZM49.9203 8.436H51.0823V21.092H49.9203V8.436ZM50.8023 13.63H53.1543V14.61H50.8023V13.63ZM41.2823 10.452H48.7443V11.404H41.2823V10.452ZM45.0623 12.454C46.8543 12.454 48.1423 13.658 48.1423 15.366C48.1423 17.074 46.8543 18.278 45.0623 18.278C43.2843 18.278 41.9823 17.074 41.9823 15.366C41.9823 13.658 43.2843 12.454 45.0623 12.454ZM45.0623 13.42C43.9143 13.42 43.0883 14.218 43.0883 15.366C43.0883 16.5 43.9143 17.312 45.0623 17.312C46.2103 17.312 47.0363 16.5 47.0363 15.366C47.0363 14.218 46.2103 13.42 45.0623 13.42ZM44.4603 8.59H45.6223V10.886H44.4603V8.59ZM63.4713 8.422H64.6333V21.106H63.4713V8.422ZM61.0633 13.294H63.7513V14.246H61.0633V13.294ZM54.6933 17.102H55.6593C57.8993 17.102 59.4813 17.032 61.3433 16.696L61.4553 17.662C59.5513 17.998 57.9413 18.082 55.6593 18.082H54.6933V17.102ZM54.6653 9.612H60.3213V14.05H55.8413V17.396H54.6933V13.098H59.1733V10.564H54.6653V9.612ZM79.6017 8.422H80.7777V21.092H79.6017V8.422ZM80.4557 13.56H82.7937V14.526H80.4557V13.56ZM76.3677 9.794H77.5017C77.5017 13.392 75.8497 16.64 71.7617 18.698L71.1177 17.802C74.6177 16.024 76.3677 13.322 76.3677 9.976V9.794ZM71.7057 9.794H76.9697V10.746H71.7057V9.794ZM93.1386 8.436H94.3006V21.092H93.1386V8.436ZM89.4286 9.794H90.5766C90.5766 13.462 88.9246 16.668 84.6966 18.74L84.0806 17.802C87.7346 16.038 89.4286 13.35 89.4286 9.99V9.794ZM84.6546 9.794H89.9326V10.746H84.6546V9.794Z" fill="black"/>
</svg>
