<svg width="328" height="58" viewBox="0 0 328 58" fill="none" xmlns="http://www.w3.org/2000/svg">
<g filter="url(#filter0_d_6_19)">
<path d="M4 10C4 4.47715 8.47715 0 14 0H314C319.523 0 324 4.47715 324 10V40C324 45.5229 319.523 50 314 50H164H14C8.47715 50 4 45.5229 4 40V10Z" fill="white"/>
<path d="M111.296 17.768H112.624V32.264H111.296V17.768ZM104.992 18.888C107.136 18.888 108.672 20.856 108.672 23.928C108.672 27.016 107.136 28.984 104.992 28.984C102.864 28.984 101.328 27.016 101.328 23.928C101.328 20.856 102.864 18.888 104.992 18.888ZM104.992 20.088C103.584 20.088 102.592 21.592 102.592 23.928C102.592 26.28 103.584 27.816 104.992 27.816C106.416 27.816 107.392 26.28 107.392 23.928C107.392 21.592 106.416 20.088 104.992 20.088ZM116.031 19.448H121.551V28.376H116.031V19.448ZM120.303 20.504H117.279V27.32H120.303V20.504ZM126.527 17.784H127.807V32.248H126.527V17.784ZM120.879 23.224H124.207V24.328H120.879V23.224ZM123.663 18.088H124.927V31.528H123.663V18.088ZM134.286 18.312C136.446 18.312 138.03 19.624 138.03 21.528C138.03 23.416 136.446 24.728 134.286 24.728C132.142 24.728 130.558 23.416 130.558 21.528C130.558 19.624 132.142 18.312 134.286 18.312ZM134.286 19.4C132.894 19.4 131.838 20.28 131.838 21.528C131.838 22.776 132.894 23.64 134.286 23.64C135.694 23.64 136.734 22.776 136.734 21.528C136.734 20.28 135.694 19.4 134.286 19.4ZM140.75 17.784H142.094V25.192H140.75V17.784ZM132.734 25.896H142.094V29.416H134.062V31.592H132.766V28.424H140.782V26.968H132.734V25.896ZM132.766 31H142.574V32.056H132.766V31ZM144.956 29.368H158.06V30.472H144.956V29.368ZM150.812 26.264H152.14V29.832H150.812V26.264ZM146.54 18.856H156.444V23.24H147.9V26.136H146.588V22.168H155.132V19.928H146.54V18.856ZM146.588 25.576H156.78V26.664H146.588V25.576ZM168.287 26.456H169.631V28.84H168.287V26.456ZM174.623 17.784H175.951V32.248H174.623V17.784ZM164.431 29.496L164.255 28.392C166.991 28.376 170.591 28.344 173.711 27.944L173.807 28.92C170.591 29.464 167.103 29.496 164.431 29.496ZM164.559 19.544H173.343V20.616H164.559V19.544ZM168.943 21.448C171.023 21.448 172.431 22.504 172.431 24.12C172.431 25.752 171.023 26.792 168.943 26.792C166.879 26.792 165.471 25.752 165.471 24.12C165.471 22.504 166.879 21.448 168.943 21.448ZM168.943 22.472C167.647 22.472 166.735 23.128 166.735 24.12C166.735 25.112 167.647 25.768 168.943 25.768C170.255 25.768 171.167 25.112 171.167 24.12C171.167 23.128 170.255 22.472 168.943 22.472ZM168.287 17.784H169.615V20.136H168.287V17.784ZM182.99 25.064H184.318V28.28H182.99V25.064ZM189.406 17.784H190.734V28.792H189.406V17.784ZM180.862 30.84H191.086V31.928H180.862V30.84ZM180.862 27.72H182.19V31.144H180.862V27.72ZM178.99 25.56L178.814 24.472C181.486 24.472 185.07 24.44 188.142 24.04L188.238 25.016C185.118 25.512 181.614 25.56 178.99 25.56ZM186.462 26.328H189.742V27.304H186.462V26.328ZM183.518 18.376C185.63 18.376 187.07 19.368 187.07 20.888C187.07 22.424 185.63 23.416 183.518 23.416C181.39 23.416 179.95 22.424 179.95 20.888C179.95 19.368 181.39 18.376 183.518 18.376ZM183.518 19.368C182.158 19.368 181.214 19.96 181.214 20.888C181.214 21.816 182.158 22.408 183.518 22.408C184.862 22.408 185.806 21.816 185.806 20.888C185.806 19.96 184.862 19.368 183.518 19.368ZM203.389 17.768H204.733V32.248H203.389V17.768ZM204.365 23.64H207.037V24.744H204.365V23.64ZM199.693 19.336H200.989C200.989 23.448 199.101 27.16 194.429 29.512L193.693 28.488C197.693 26.456 199.693 23.368 199.693 19.544V19.336ZM194.365 19.336H200.381V20.424H194.365V19.336ZM218.843 17.784H220.187V25.544H218.843V17.784ZM210.859 26.264H212.171V28.024H218.875V26.264H220.187V32.056H210.859V26.264ZM212.171 29.08V30.984H218.875V29.08H212.171ZM212.427 18.472C214.619 18.472 216.187 19.832 216.187 21.8C216.187 23.784 214.619 25.144 212.427 25.144C210.235 25.144 208.651 23.784 208.651 21.8C208.651 19.832 210.235 18.472 212.427 18.472ZM212.427 19.576C210.987 19.576 209.947 20.488 209.947 21.8C209.947 23.112 210.987 24.024 212.427 24.024C213.867 24.024 214.907 23.112 214.907 21.8C214.907 20.488 213.867 19.576 212.427 19.576Z" fill="black"/>
</g>
<defs>
<filter id="filter0_d_6_19" x="0" y="0" width="328" height="58" filterUnits="userSpaceOnUse" color-interpolation-filters="sRGB">
<feFlood flood-opacity="0" result="BackgroundImageFix"/>
<feColorMatrix in="SourceAlpha" type="matrix" values="0 0 0 0 0 0 0 0 0 0 0 0 0 0 0 0 0 0 127 0" result="hardAlpha"/>
<feOffset dy="4"/>
<feGaussianBlur stdDeviation="2"/>
<feComposite in2="hardAlpha" operator="out"/>
<feColorMatrix type="matrix" values="0 0 0 0 0 0 0 0 0 0 0 0 0 0 0 0 0 0 0.25 0"/>
<feBlend mode="normal" in2="BackgroundImageFix" result="effect1_dropShadow_6_19"/>
<feBlend mode="normal" in="SourceGraphic" in2="effect1_dropShadow_6_19" result="shape"/>
</filter>
</defs>
</svg>
