<svg width="312" height="50" viewBox="0 0 312 50" fill="none" xmlns="http://www.w3.org/2000/svg">
<rect x="0.5" y="0.5" width="311" height="49" rx="9.5" fill="#F5F5F5" stroke="#D9D9D9"/>
<path d="M131.475 25.456H132.819V27.84H131.475V25.456ZM137.811 16.784H139.139V31.248H137.811V16.784ZM127.618 28.496L127.443 27.392C130.179 27.376 133.779 27.344 136.899 26.944L136.995 27.92C133.779 28.464 130.291 28.496 127.618 28.496ZM127.747 18.544H136.531V19.616H127.747V18.544ZM132.131 20.448C134.211 20.448 135.619 21.504 135.619 23.12C135.619 24.752 134.211 25.792 132.131 25.792C130.067 25.792 128.659 24.752 128.659 23.12C128.659 21.504 130.067 20.448 132.131 20.448ZM132.131 21.472C130.835 21.472 129.923 22.128 129.923 23.12C129.923 24.112 130.835 24.768 132.131 24.768C133.443 24.768 134.355 24.112 134.355 23.12C134.355 22.128 133.443 21.472 132.131 21.472ZM131.475 16.784H132.803V19.136H131.475V16.784ZM146.177 24.064H147.505V27.28H146.177V24.064ZM152.593 16.784H153.921V27.792H152.593V16.784ZM144.049 29.84H154.273V30.928H144.049V29.84ZM144.049 26.72H145.377V30.144H144.049V26.72ZM142.177 24.56L142.001 23.472C144.673 23.472 148.257 23.44 151.329 23.04L151.425 24.016C148.305 24.512 144.801 24.56 142.177 24.56ZM149.649 25.328H152.929V26.304H149.649V25.328ZM146.705 17.376C148.817 17.376 150.257 18.368 150.257 19.888C150.257 21.424 148.817 22.416 146.705 22.416C144.577 22.416 143.137 21.424 143.137 19.888C143.137 18.368 144.577 17.376 146.705 17.376ZM146.705 18.368C145.345 18.368 144.401 18.96 144.401 19.888C144.401 20.816 145.345 21.408 146.705 21.408C148.049 21.408 148.993 20.816 148.993 19.888C148.993 18.96 148.049 18.368 146.705 18.368ZM166.576 16.768H167.92V31.248H166.576V16.768ZM167.552 22.64H170.224V23.744H167.552V22.64ZM162.88 18.336H164.176C164.176 22.448 162.288 26.16 157.616 28.512L156.88 27.488C160.88 25.456 162.88 22.368 162.88 18.544V18.336ZM157.552 18.336H163.568V19.424H157.552V18.336ZM182.031 16.784H183.375V24.544H182.031V16.784ZM174.047 25.264H175.359V27.024H182.063V25.264H183.375V31.056H174.047V25.264ZM175.359 28.08V29.984H182.063V28.08H175.359ZM175.615 17.472C177.807 17.472 179.375 18.832 179.375 20.8C179.375 22.784 177.807 24.144 175.615 24.144C173.423 24.144 171.839 22.784 171.839 20.8C171.839 18.832 173.423 17.472 175.615 17.472ZM175.615 18.576C174.175 18.576 173.135 19.488 173.135 20.8C173.135 22.112 174.175 23.024 175.615 23.024C177.055 23.024 178.095 22.112 178.095 20.8C178.095 19.488 177.055 18.576 175.615 18.576Z" fill="black"/>
</svg>
