<svg width="70" height="70" viewBox="0 0 70 70" fill="none" xmlns="http://www.w3.org/2000/svg">
<path d="M35 1.64062C41.5979 1.64062 48.0476 3.59712 53.5335 7.26269C59.0194 10.9283 63.2952 16.1383 65.82 22.2339C68.3449 28.3295 69.0056 35.037 67.7184 41.5081C66.4312 47.9792 63.254 53.9232 58.5886 58.5886C53.9233 63.254 47.9792 66.4312 41.5081 67.7184C35.037 69.0055 28.3296 68.3449 22.2339 65.82C16.1383 63.2951 10.9283 59.0194 7.26271 53.5335C3.59713 48.0475 1.64064 41.5979 1.64064 35C1.64933 26.1552 5.16675 17.6752 11.421 11.421C17.6752 5.16674 26.1552 1.64931 35 1.64062ZM35 0C28.0777 0 21.3108 2.05271 15.5551 5.89856C9.79933 9.74441 5.3133 15.2107 2.66423 21.6061C0.0151648 28.0015 -0.677952 35.0388 0.672531 41.8282C2.02301 48.6175 5.35644 54.8539 10.2513 59.7487C15.1461 64.6436 21.3825 67.977 28.1719 69.3275C34.9612 70.6779 41.9985 69.9848 48.3939 67.3358C54.7893 64.6867 60.2556 60.2007 64.1014 54.4449C67.9473 48.6892 70 41.9223 70 35C70 25.7174 66.3125 16.815 59.7487 10.2513C53.185 3.68749 44.2826 0 35 0Z" fill="#2E2F42"/>
<path d="M46.7961 33.5399C46.5785 33.5399 46.3699 33.4534 46.216 33.2996C46.0622 33.1458 45.9758 32.9371 45.9758 32.7195V27.7977C45.9758 27.5801 46.0622 27.3715 46.216 27.2176C46.3699 27.0638 46.5785 26.9774 46.7961 26.9774C47.0136 26.9774 47.2223 27.0638 47.3761 27.2176C47.53 27.3715 47.6164 27.5801 47.6164 27.7977V32.7195C47.615 32.9367 47.5281 33.1445 47.3745 33.298C47.221 33.4515 47.0132 33.5384 46.7961 33.5399ZM23.2039 33.5399C22.9868 33.5384 22.779 33.4515 22.6254 33.298C22.4719 33.1445 22.385 32.9367 22.3836 32.7195V27.7977C22.3836 27.5801 22.47 27.3715 22.6238 27.2176C22.7777 27.0638 22.9863 26.9774 23.2039 26.9774C23.4215 26.9774 23.6301 27.0638 23.7839 27.2176C23.9378 27.3715 24.0242 27.5801 24.0242 27.7977V32.7195C24.0242 32.9371 23.9378 33.1458 23.7839 33.2996C23.6301 33.4534 23.4215 33.5399 23.2039 33.5399ZM35 51.8492C34.4914 51.8492 33.9773 51.8492 33.4469 51.7945C29.4704 51.5008 25.6475 50.1364 22.3836 47.8461C22.29 47.788 22.2091 47.7116 22.1457 47.6216C22.0823 47.5315 22.0377 47.4296 22.0145 47.322C21.9913 47.2143 21.99 47.103 22.0108 46.9949C22.0315 46.8867 22.0738 46.7838 22.1351 46.6923C22.1965 46.6009 22.2756 46.5227 22.3678 46.4625C22.46 46.4022 22.5634 46.3612 22.6719 46.3418C22.7803 46.3224 22.8915 46.325 22.9989 46.3495C23.1062 46.374 23.2076 46.4199 23.2969 46.4844C26.3167 48.6054 29.8542 49.8696 33.5344 50.143C38.213 50.4474 42.8569 49.1578 46.7086 46.4844C46.7963 46.4127 46.8979 46.3599 47.007 46.3294C47.1161 46.2989 47.2304 46.2914 47.3426 46.3072C47.4547 46.3231 47.5624 46.362 47.6588 46.4215C47.7552 46.4811 47.8382 46.5599 47.9026 46.6531C47.967 46.7463 48.0114 46.8519 48.033 46.9631C48.0546 47.0743 48.053 47.1888 48.0281 47.2993C48.0033 47.4098 47.9558 47.514 47.8887 47.6053C47.8216 47.6966 47.7364 47.773 47.6383 47.8297C43.9258 50.4105 39.5212 51.8114 35 51.8492Z" fill="#2E2F42"/>
</svg>
